<?xml version="1.0" encoding="UTF-8"?>
<svg id="Layer_2" data-name="Layer 2" xmlns="http://www.w3.org/2000/svg" viewBox="0 0 667.13 360.06">
  <defs>
    <style>
      .cls-1 {
        fill: #16234b;
      }
    </style>
  </defs>
  <g id="Layer_1-2" data-name="Layer 1">
    <path class="cls-1" d="M664.05,211.4l-120.81,35.45c-.45.13-.92.1-1.35-.03l-.4-.81-3.4-6.24-3.6-6.13-1.23-1.94-1.55-3c-.52-1-.26-2.24.63-2.95l55.45-38.98c2.14-1.73.15-5.11-2.4-4.05l-64.9,27.11c-.94.39-2.03.15-2.69-.61l-14.26-16.13c-.82-.92-.79-2.32.05-3.21l89.11-87.24c2.05-2.16-.95-5.37-3.24-3.47l-97.2,80.33c-.87.71-2.11.73-2.98.03l-2.65-2.08-3.58-3.05-5.69-4.55-6.08-4.53c-.84-.74-1.05-1.98-.48-2.95l35.64-55.61c1.42-2.42-1.79-4.87-3.76-2.87l-46.5,49.48c-.61.63-1.5.82-2.31.6l-4.61-2.68-7.47-3.98-7.6-3.69-2.11-.94c-.6-.66-.81-1.61-.47-2.48l48.05-109.83c1.1-2.77-2.89-4.63-4.31-2.02l-57.46,106.54c-.4.73-1.13,1.18-1.92,1.23l-5.55-1.97-8.16-2.56-8.24-2.26-1.29-.31c-.56-.5-.9-1.23-.82-2.02l8.81-62.62c.29-2.79-3.63-3.69-4.6-1.06l-21,62.04h0l-6.23-.98-.95-.11,2.37-39.56c.13-2.06-2.68-2.77-3.56-.9l-18.18,38.66-4.29-.21-7.58-.15-2.69.03c-.47-.4-.79-.95-.84-1.61l-6.92-118.35c-.24-2.98-4.63-2.89-4.74.1l-2.89,118.9c-.03.65-.31,1.19-.74,1.61l-3.71.29-7.4.82-7.27,1.05c-.74-.19-1.37-.73-1.65-1.48l-18.06-59.38c-.97-2.66-4.95-1.71-4.6,1.11l8.34,61.75c.05.45-.05.87-.23,1.26l-3.03.68-11.69,3.26-11.56,3.9-5.08,2.02-62.5-107.73c-1.52-2.52-5.35-.6-4.24,2.13l48.63,112.7c.1.24.13.48.15.74l-4.26,2.11-7.73,4.18-3.42,2.02c-.16-.1-.34-.21-.48-.35l-46.27-50.4c-1.92-2.02-5.14.34-3.81,2.79l34.82,58.13v.03l-7.02,5.08-8.84,7.08-4.11,3.63c-.27-.08-.55-.21-.77-.39l-98.95-80.29c-2.32-1.81-5.21,1.39-3.18,3.52l88.51,90.32c.11.11.18.27.26.4l-6.02,6.47-7.27,8.64-.97,1.27c-.26-.03-.52-.08-.76-.19l-64.58-32.64c-2.56-1.18-4.68,2.29-2.47,4.03l56.51,42.8c.26.19.45.45.6.71l-1.56,2.27-5.94,9.6-5.47,9.87-.94,1.89c-.23,0-.45,0-.66-.08L3.05,208.08c-2.87-.82-4.34,3.32-1.58,4.48l121.01,50.16c.23.1.42.23.6.39l-1.73,4-3.97,10.58-3.44,10.73-.68,2.53c-.23.05-.47.08-.71.06l-69.83-5.9c-2.87-.21-3.58,3.92-.81,4.66l66.96,14.45c.37.1.68.31.95.56l-1.03,4.77-1.77,10.37-1.21,9.74c-.23.1-.48.16-.74.18l-64.66,2.45c-2.94.21-3.29,8.71-.35,8.93h283.66l-3.61,16.55c-.45,2.1,2.4,3.19,3.47,1.32l10.02-17.85h233.69l68.25-.29c2.87-.26,2.95-8.61.08-8.9l-68.59-5.27c-.21-.02-.4-.1-.6-.16l-.9-7.1-1.82-10.5-1.63-7.42c.31-.42.74-.74,1.27-.89l69.06-14.08c2.76-.73,2.13-4.79-.71-4.68l-73.95,3.58-2.29-7.18-3.66-9.89-2.94-6.97c.15-.11.29-.19.47-.27l116.36-45.38c2.73-1.19,1.23-5.31-1.63-4.45h-.02ZM257.44,273.64c-1.5,2.76-3.55,5.06-6.14,6.92-2.6,1.87-5.71,3.29-9.31,4.26-3.61.98-7.52,1.47-11.74,1.47-2.56,0-5.14-.16-7.76-.5-2.6-.34-5.1-.79-7.48-1.37s-4.61-1.27-6.69-2.06c-2.08-.79-3.92-1.68-5.5-2.66l5.23-11.64c1.29.85,2.77,1.63,4.5,2.34,1.71.71,3.53,1.31,5.45,1.79s3.9.89,5.92,1.19,4,.45,5.97.45c2.26,0,4.35-.18,6.29-.55s3.6-.95,5-1.74c1.4-.79,2.52-1.82,3.35-3.08.82-1.26,1.24-2.74,1.24-4.45,0-1.53-.34-2.84-1.02-3.95-.68-1.1-1.61-2.05-2.84-2.84-1.23-.79-2.71-1.47-4.45-2.02s-3.68-1.1-5.82-1.65l-6.14-1.56c-6.79-1.65-11.89-4.37-15.32-8.16-3.42-3.79-5.13-8.47-5.13-14.03,0-3,.65-5.74,1.92-8.26,1.29-2.5,3.11-4.66,5.5-6.47,2.39-1.81,5.23-3.19,8.53-4.18,3.31-.98,6.97-1.47,11-1.47,2.32,0,4.69.16,7.11.5,2.42.34,4.76.81,7.02,1.42,2.26.61,4.42,1.32,6.47,2.11,2.05.79,3.87,1.68,5.45,2.66l-5.23,11.64c-2.76-1.77-6.03-3.18-9.82-4.23-3.79-1.03-7.48-1.56-11.1-1.56-1.77,0-3.45.16-5.05.5-1.6.34-3,.84-4.23,1.52s-2.19,1.52-2.89,2.52-1.05,2.19-1.05,3.53c0,2.45.94,4.4,2.79,5.87,1.87,1.47,4.87,2.73,9.03,3.76l6.24,1.56c3.11.79,6.06,1.81,8.85,3.03,2.77,1.23,5.21,2.76,7.29,4.58,2.08,1.84,3.73,4,4.95,6.52,1.23,2.52,1.84,5.42,1.84,8.71,0,3.61-.74,6.79-2.24,9.53v.05ZM417.25,192.05l-83.67,149.15h-9.87l20.56-94.01c.27-1.23-.73-2.37-1.98-2.26l-50.24,4.14c-1.44.11-2.47-1.35-1.85-2.66l58.19-123.7,19.48,1.6-4.23,70.61c-.06,1.19.97,2.15,2.15,1.97l49.53-7.58c1.55-.24,2.68,1.4,1.92,2.76l.02-.02ZM493.98,283.35h-45.34v-70.98h12.69v59.25h32.64v11.73h0Z"/>
  </g>
</svg>