<?xml version="1.0" encoding="UTF-8"?>
<svg id="Layer_2" data-name="Layer 2" xmlns="http://www.w3.org/2000/svg" viewBox="0 0 413.65 271.59">
  <defs>
    <style>
      .cls-1 {
        fill: #16234b;
      }
    </style>
  </defs>
  <g id="Layer_1-2" data-name="Layer 1">
    <g>
      <path class="cls-1" d="M30.57,244.07c-.27.15-.59.26-.96.33s-.77.11-1.2.11c-.37,0-.75-.03-1.14-.09-.39-.06-.76-.13-1.13-.23s-.72-.21-1.04-.34c-.33-.13-.61-.28-.86-.45l-1,2.23c.3.19.65.36,1.05.51.4.15.83.28,1.28.39.46.11.93.2,1.43.26.5.06.99.1,1.48.1.81,0,1.55-.09,2.25-.28.69-.19,1.28-.46,1.78-.82s.89-.8,1.18-1.32c.29-.53.43-1.13.43-1.82,0-.63-.12-1.19-.35-1.67-.23-.48-.55-.89-.95-1.25s-.86-.64-1.39-.88c-.53-.23-1.1-.43-1.69-.58l-1.19-.3c-.8-.2-1.37-.44-1.73-.72-.36-.28-.54-.66-.54-1.12,0-.26.07-.48.2-.67.13-.19.32-.35.55-.48s.5-.22.81-.29.63-.1.96-.1c.69,0,1.4.1,2.12.3.72.2,1.35.47,1.88.81l1-2.23c-.3-.19-.65-.36-1.04-.51s-.8-.29-1.24-.4-.88-.21-1.34-.27c-.46-.06-.92-.1-1.36-.1-.77,0-1.47.09-2.1.28-.63.19-1.17.45-1.63.8s-.81.76-1.05,1.24c-.25.48-.37,1.01-.37,1.58,0,1.06.33,1.96.98,2.68.65.73,1.63,1.25,2.93,1.56l1.17.3c.41.11.78.21,1.11.32.33.11.62.23.85.39.23.15.41.33.54.54.13.21.19.46.19.75,0,.33-.08.61-.24.85-.16.24-.37.44-.64.59Z"/>
      <path class="cls-1" d="M46.27,240.53c0,.66-.06,1.23-.19,1.73-.13.5-.33.91-.61,1.25-.28.33-.65.58-1.11.75-.46.17-1.01.25-1.67.25s-1.23-.08-1.68-.25c-.46-.17-.82-.42-1.11-.75-.28-.33-.48-.75-.6-1.25-.12-.5-.18-1.07-.18-1.73v-8.07h-2.53v8.65c0,.81.11,1.56.33,2.27.22.71.58,1.32,1.06,1.84.49.52,1.11.93,1.88,1.23.77.3,1.71.45,2.82.45s2.05-.15,2.82-.45c.77-.3,1.4-.71,1.88-1.23.48-.52.84-1.13,1.06-1.84.22-.71.33-1.46.33-2.27v-8.65h-2.53v8.07Z"/>
      <polygon class="cls-1" points="63.62 232.46 61.14 232.46 61.14 244.32 55.95 232.46 52.06 232.46 52.06 246.68 54.55 246.68 54.55 234.83 59.74 246.68 63.62 246.68 63.62 232.46"/>
      <polygon class="cls-1" points="67.05 232.46 67.05 246.68 76.14 246.68 76.14 244.33 69.6 244.33 69.6 232.46 67.05 232.46"/>
      <rect class="cls-1" x="78.17" y="232.46" width="2.53" height="14.22"/>
      <path class="cls-1" d="M87.29,235.81c.44-.41.95-.71,1.53-.91.58-.2,1.19-.3,1.83-.3.83,0,1.6.1,2.3.29.7.19,1.31.45,1.82.76l.96-2.23c-.61-.37-1.37-.67-2.28-.89-.91-.22-1.88-.33-2.91-.33-1.12,0-2.14.18-3.05.55s-1.69.88-2.32,1.54c-.64.66-1.13,1.44-1.47,2.33s-.52,1.87-.52,2.92.17,2.03.52,2.92.84,1.67,1.47,2.33c.64.66,1.41,1.18,2.32,1.54s1.93.55,3.05.55c.46,0,.94-.03,1.45-.09.51-.06,1.01-.14,1.5-.25.49-.11.96-.25,1.41-.4.45-.16.84-.34,1.18-.55v-6.65h-5.7v2.38h3.17v2.56c-.43.2-.9.35-1.4.46-.5.11-1,.16-1.51.16-.64,0-1.25-.1-1.83-.3-.58-.2-1.09-.51-1.53-.92s-.79-.93-1.04-1.55c-.26-.62-.39-1.35-.39-2.19s.13-1.57.39-2.19c.26-.62.61-1.13,1.04-1.54Z"/>
      <polygon class="cls-1" points="99.52 232.46 99.52 246.68 102.04 246.68 102.04 240.58 108.87 240.58 108.87 246.68 111.41 246.68 111.41 232.46 108.87 232.46 108.87 238.19 102.04 238.19 102.04 232.46 99.52 232.46"/>
      <polygon class="cls-1" points="113.44 234.81 118.18 234.81 118.18 246.68 120.72 246.68 120.72 234.81 125.46 234.81 125.46 232.46 113.44 232.46 113.44 234.81"/>
      <polygon class="cls-1" points="142.47 234.81 142.47 232.46 133.38 232.46 133.38 246.68 142.5 246.68 142.5 244.33 135.91 244.33 135.91 240.58 141.85 240.58 141.85 238.19 135.91 238.19 135.91 234.81 142.47 234.81"/>
      <polygon class="cls-1" points="145.32 232.46 145.32 246.68 154.41 246.68 154.41 244.33 147.87 244.33 147.87 232.46 145.32 232.46"/>
      <polygon class="cls-1" points="165.53 234.81 165.53 232.46 156.44 232.46 156.44 246.68 165.56 246.68 165.56 244.33 158.97 244.33 158.97 240.58 164.91 240.58 164.91 238.19 158.97 238.19 158.97 234.81 165.53 234.81"/>
      <path class="cls-1" d="M174.96,246.89c.9,0,1.76-.11,2.58-.33.82-.22,1.53-.51,2.14-.89l-.98-2.24c-.51.33-1.07.59-1.67.78-.6.19-1.25.29-1.96.29-.64,0-1.25-.1-1.83-.3-.58-.2-1.09-.51-1.53-.92s-.79-.93-1.04-1.55c-.26-.62-.39-1.35-.39-2.19s.13-1.57.39-2.19c.26-.62.61-1.13,1.04-1.54s.95-.71,1.53-.91c.58-.2,1.19-.3,1.83-.3.7,0,1.35.1,1.96.29.6.19,1.16.45,1.67.76l.98-2.23c-.61-.37-1.32-.67-2.14-.89-.82-.22-1.68-.33-2.58-.33-1.12,0-2.14.18-3.05.55s-1.69.88-2.32,1.54c-.64.66-1.13,1.44-1.47,2.33s-.52,1.87-.52,2.92.17,2.03.52,2.92.84,1.67,1.47,2.33c.64.66,1.41,1.18,2.32,1.54s1.93.55,3.05.55Z"/>
      <polygon class="cls-1" points="187.94 246.68 187.94 234.81 192.68 234.81 192.68 232.46 180.66 232.46 180.66 234.81 185.4 234.81 185.4 246.68 187.94 246.68"/>
      <polygon class="cls-1" points="203.8 234.81 203.8 232.46 194.71 232.46 194.71 246.68 203.83 246.68 203.83 244.33 197.24 244.33 197.24 240.58 203.18 240.58 203.18 238.19 197.24 238.19 197.24 234.81 203.8 234.81"/>
      <path class="cls-1" d="M209.98,235.81c.44-.41.95-.71,1.53-.91.58-.2,1.19-.3,1.83-.3.7,0,1.35.1,1.96.29.6.19,1.16.45,1.67.76l.98-2.23c-.61-.37-1.32-.67-2.14-.89-.82-.22-1.68-.33-2.58-.33-1.12,0-2.14.18-3.05.55s-1.69.88-2.32,1.54c-.64.66-1.13,1.44-1.47,2.33s-.52,1.87-.52,2.92.17,2.03.52,2.92.84,1.67,1.47,2.33c.64.66,1.41,1.18,2.32,1.54s1.93.55,3.05.55c.9,0,1.76-.11,2.58-.33.82-.22,1.53-.51,2.14-.89l-.98-2.24c-.51.33-1.07.59-1.67.78-.6.19-1.25.29-1.96.29-.64,0-1.25-.1-1.83-.3-.58-.2-1.09-.51-1.53-.92s-.79-.93-1.04-1.55c-.26-.62-.39-1.35-.39-2.19s.13-1.57.39-2.19c.26-.62.61-1.13,1.04-1.54Z"/>
      <path class="cls-1" d="M222.6,243.33h5.89l1.21,3.35h2.65l-5.26-14.22h-3.07l-5.26,14.22h2.65l1.19-3.35ZM225.55,235.06l2.1,5.91h-4.21l2.1-5.91Z"/>
      <polygon class="cls-1" points="234.21 232.46 234.21 246.68 243.29 246.68 243.29 244.33 236.75 244.33 236.75 232.46 234.21 232.46"/>
      <path class="cls-1" d="M257.62,246.89c.9,0,1.76-.11,2.58-.33.82-.22,1.53-.51,2.14-.89l-.98-2.24c-.51.33-1.07.59-1.67.78-.6.19-1.25.29-1.96.29-.64,0-1.25-.1-1.83-.3-.58-.2-1.09-.51-1.53-.92s-.79-.93-1.04-1.55c-.26-.62-.39-1.35-.39-2.19s.13-1.57.39-2.19c.26-.62.61-1.13,1.04-1.54s.95-.71,1.53-.91c.58-.2,1.19-.3,1.83-.3.7,0,1.35.1,1.96.29.6.19,1.16.45,1.67.76l.98-2.23c-.61-.37-1.32-.67-2.14-.89-.82-.22-1.68-.33-2.58-.33-1.12,0-2.14.18-3.05.55s-1.69.88-2.32,1.54c-.64.66-1.13,1.44-1.47,2.33s-.52,1.87-.52,2.92.17,2.03.52,2.92.84,1.67,1.47,2.33c.64.66,1.41,1.18,2.32,1.54s1.93.55,3.05.55Z"/>
      <path class="cls-1" d="M265.21,244.78c.66.66,1.43,1.18,2.33,1.55s1.89.56,2.98.56,2.08-.19,2.98-.56,1.68-.89,2.33-1.55c.65-.66,1.16-1.44,1.53-2.33s.54-1.86.54-2.9-.18-1.99-.54-2.89-.87-1.68-1.53-2.33-1.43-1.17-2.33-1.55-1.89-.57-2.98-.57-2.08.19-2.98.57-1.68.9-2.33,1.55-1.16,1.43-1.53,2.33-.54,1.87-.54,2.89.18,2.01.54,2.9.87,1.67,1.53,2.33ZM266.19,237.51c.24-.61.57-1.13.99-1.56s.92-.77,1.49-1c.57-.23,1.19-.35,1.86-.35s1.3.12,1.88.35c.57.23,1.07.57,1.49,1s.75.95.99,1.56c.24.61.36,1.29.36,2.04s-.12,1.43-.36,2.03c-.24.61-.57,1.13-.99,1.56s-.92.77-1.49,1c-.57.23-1.2.35-1.88.35s-1.29-.12-1.86-.35c-.57-.23-1.07-.57-1.49-1s-.75-.95-.99-1.56c-.24-.61-.36-1.29-.36-2.03s.12-1.43.36-2.04Z"/>
      <polygon class="cls-1" points="282.87 234.83 288.07 246.68 291.94 246.68 291.94 232.46 289.47 232.46 289.47 244.32 284.28 232.46 280.38 232.46 280.38 246.68 282.87 246.68 282.87 234.83"/>
      <polygon class="cls-1" points="301.25 246.68 301.25 234.81 305.99 234.81 305.99 232.46 293.98 232.46 293.98 234.81 298.71 234.81 298.71 246.68 301.25 246.68"/>
      <path class="cls-1" d="M319.37,246.68l-3.72-5.96c.53-.18.97-.4,1.34-.68.37-.28.67-.6.89-.95.23-.35.39-.73.5-1.12s.16-.8.16-1.21c0-.55-.1-1.08-.29-1.6-.19-.51-.5-.97-.92-1.38s-.96-.72-1.61-.96c-.66-.24-1.44-.36-2.37-.36h-5.33v14.22h2.53v-5.61h2.51l3.47,5.61h2.84ZM315.04,238.47c-.27.16-.59.27-.97.32-.38.06-.8.09-1.27.09h-2.25v-4.07h2.25c1.05,0,1.83.15,2.33.46.5.31.75.82.75,1.54,0,.41-.07.75-.22,1.02-.15.27-.35.48-.62.64Z"/>
      <path class="cls-1" d="M328.42,232.46h-3.07l-5.26,14.22h2.65l1.19-3.35h5.89l1.21,3.35h2.65l-5.26-14.22ZM324.77,240.97l2.1-5.91,2.1,5.91h-4.21Z"/>
      <path class="cls-1" d="M338.16,235.81c.44-.41.95-.71,1.53-.91.58-.2,1.19-.3,1.83-.3.7,0,1.35.1,1.96.29.6.19,1.16.45,1.67.76l.98-2.23c-.61-.37-1.32-.67-2.14-.89-.82-.22-1.68-.33-2.58-.33-1.12,0-2.14.18-3.05.55s-1.69.88-2.32,1.54c-.64.66-1.13,1.44-1.47,2.33s-.52,1.87-.52,2.92.17,2.03.52,2.92.84,1.67,1.47,2.33c.64.66,1.41,1.18,2.32,1.54s1.93.55,3.05.55c.9,0,1.76-.11,2.58-.33.82-.22,1.53-.51,2.14-.89l-.98-2.24c-.51.33-1.07.59-1.67.78-.6.19-1.25.29-1.96.29-.64,0-1.25-.1-1.83-.3-.58-.2-1.09-.51-1.53-.92s-.79-.93-1.04-1.55c-.26-.62-.39-1.35-.39-2.19s.13-1.57.39-2.19c.26-.62.61-1.13,1.04-1.54Z"/>
      <polygon class="cls-1" points="354.4 246.68 354.4 234.81 359.13 234.81 359.13 232.46 347.12 232.46 347.12 234.81 351.85 234.81 351.85 246.68 354.4 246.68"/>
      <rect class="cls-1" x="361.17" y="232.46" width="2.53" height="14.22"/>
      <polygon class="cls-1" points="369.62 234.83 374.81 246.68 378.69 246.68 378.69 232.46 376.21 232.46 376.21 244.32 371.02 232.46 367.13 232.46 367.13 246.68 369.62 246.68 369.62 234.83"/>
      <path class="cls-1" d="M385.27,235.81c.44-.41.95-.71,1.53-.91.58-.2,1.19-.3,1.83-.3.83,0,1.6.1,2.3.29.7.19,1.31.45,1.82.76l.96-2.23c-.61-.37-1.37-.67-2.28-.89-.91-.22-1.88-.33-2.91-.33-1.12,0-2.14.18-3.05.55s-1.69.88-2.32,1.54c-.64.66-1.13,1.44-1.47,2.33s-.52,1.87-.52,2.92.17,2.03.52,2.92.84,1.67,1.47,2.33c.64.66,1.41,1.18,2.32,1.54s1.93.55,3.05.55c.46,0,.94-.03,1.45-.09.51-.06,1.01-.14,1.5-.25.49-.11.96-.25,1.41-.4.45-.16.84-.34,1.18-.55v-6.65h-5.7v2.38h3.17v2.56c-.43.2-.9.35-1.4.46-.5.11-1,.16-1.51.16-.64,0-1.25-.1-1.83-.3-.58-.2-1.09-.51-1.53-.92s-.79-.93-1.04-1.55c-.26-.62-.39-1.35-.39-2.19s.13-1.57.39-2.19c.26-.62.61-1.13,1.04-1.54Z"/>
      <path class="cls-1" d="M25.97,253.51c-.26.23-.39.53-.39.9,0,.41.13.72.4.94.27.22.59.32.96.32s.7-.11.96-.32c.27-.22.4-.53.4-.94,0-.37-.13-.68-.39-.9-.26-.23-.59-.34-.97-.34s-.71.11-.97.34Z"/>
      <path class="cls-1" d="M29.78,253.51c-.26.23-.39.53-.39.9,0,.41.13.72.4.94.27.22.59.32.96.32s.7-.11.96-.32c.27-.22.4-.53.4-.94,0-.37-.13-.68-.39-.9-.26-.23-.58-.34-.98-.34s-.71.11-.97.34Z"/>
      <path class="cls-1" d="M36.29,268.96c-.39,0-.71.12-.97.35-.26.23-.39.54-.39.91,0,.41.13.72.4.93.27.21.59.32.96.32s.7-.1.96-.32c.27-.21.4-.52.4-.93,0-.37-.13-.68-.39-.91-.26-.23-.59-.35-.97-.35Z"/>
      <path class="cls-1" d="M40.1,268.96c-.39,0-.71.12-.97.35-.26.23-.39.54-.39.91,0,.41.13.72.4.93.27.21.59.32.96.32s.7-.1.96-.32c.27-.21.4-.52.4-.93,0-.37-.13-.68-.39-.91-.26-.23-.58-.35-.98-.35Z"/>
      <path class="cls-1" d="M44.61,265.27h-5.05v-7.42h-2.46v7.42h-4.88v-8.3h-2.46v.88h-.35c-.95,0-1.79.13-2.54.38-.74.25-1.37.6-1.88,1.04s-.91.96-1.17,1.56c-.27.6-.4,1.26-.4,1.97,0,.83.15,1.56.45,2.17.3.62.71,1.13,1.25,1.54.53.41,1.16.71,1.89.91.73.2,1.54.3,2.41.3h17.64v-9.87h-2.46v7.42ZM29.77,265.27h-1.07c-.36,0-.71-.05-1.05-.16-.34-.11-.64-.26-.9-.47-.26-.21-.47-.47-.63-.77-.16-.3-.24-.66-.24-1.07s.08-.75.25-1.06c.17-.31.39-.57.68-.78.28-.21.6-.37.95-.48.35-.11.71-.17,1.07-.17h.95v4.96Z"/>
      <path class="cls-1" d="M45.27,254.72c0-.28.07-.5.21-.65.14-.15.39-.23.74-.23h.91v-.79h-1.05c-.69,0-1.23.16-1.62.49s-.59.89-.59,1.68v1.28h3.82v-1.32h-2.42v-.47Z"/>
      <path class="cls-1" d="M58.11,268.85c-.41,0-.75.12-1.03.36-.27.24-.41.55-.41.94,0,.43.14.76.43.98.29.22.62.33,1.01.33s.72-.11,1.01-.33c.29-.22.43-.55.43-.98,0-.39-.14-.7-.41-.94-.28-.24-.62-.36-1.03-.36Z"/>
      <polygon class="cls-1" points="59.3 257.86 56.85 257.86 56.85 265.27 55.02 265.27 54.67 265.27 52.78 265.27 52.78 253.51 50.32 253.51 50.32 267.73 54.67 267.73 55.02 267.73 59.3 267.73 59.3 257.86"/>
      <path class="cls-1" d="M113.87,265.27h-3.26v-1.77c0-.72-.08-1.39-.23-2.01-.15-.61-.42-1.12-.79-1.52-.44-.47-.96-.8-1.56-1.01-.6-.2-1.29-.31-2.09-.31h-5.17l2.72-5.16h-2.63l-2.84,5.16c.02.53.11.99.27,1.39.16.4.35.75.57,1.04h7.33c.32,0,.61.06.87.19.26.13.47.29.62.49.16.2.28.43.36.69.08.26.11.57.11.92v1.88h-27.78c.07-.43.1-.85.1-1.25,0-1.06-.12-2.04-.35-2.94-.23-.89-.6-1.7-1.09-2.41-.27-.39-.58-.75-.92-1.09-.34-.34-.74-.63-1.17-.88-.44-.25-.93-.44-1.46-.58s-1.13-.21-1.77-.21c-.88,0-1.76.13-2.65.39-.89.26-1.73.58-2.53.98l.82,2.23c.47-.26,1.02-.51,1.66-.75.64-.25,1.32-.37,2.06-.37.99,0,1.81.15,2.46.46.65.3,1.17.75,1.57,1.35.32.49.55,1.01.69,1.54.15.54.22,1.16.22,1.86,0,.25-.01.51-.04.79-.02.28-.06.57-.11.88h-1.6c.04-.16.07-.36.1-.6.03-.23.04-.46.04-.68,0-.61-.09-1.16-.27-1.66-.18-.5-.44-.92-.76-1.27-.33-.35-.72-.62-1.17-.82-.45-.19-.94-.29-1.46-.29-1.13,0-2.02.35-2.67,1.04-.64.7-.96,1.7-.96,3.01,0,.22.02.45.05.67.04.23.07.42.1.59h-3.54v-7.42h-2.46v9.56c0,.61-.1,1.05-.29,1.32-.19.27-.54.4-1.03.4-.19,0-.37-.01-.54-.04-.17-.02-.38-.06-.61-.12l.17,2.46c.15.05.34.08.56.11.22.03.45.04.68.04,1.16,0,2.01-.3,2.56-.91.55-.61.86-1.59.93-2.95h50.6v-11.77h1.14v-2.46h-3.6v11.77ZM74.18,264.69c-.03.23-.06.42-.08.59h-2.67c-.02-.16-.05-.36-.08-.59-.03-.23-.04-.47-.04-.73,0-.56.12-1,.35-1.32.23-.32.6-.48,1.09-.48s.83.16,1.09.48c.26.32.39.76.39,1.32,0,.26-.01.5-.04.73Z"/>
      <rect class="cls-1" x="120.37" y="253.51" width="2.46" height="14.22"/>
      <path class="cls-1" d="M141.61,265.27h-4.91c-.53,0-1.02-.05-1.47-.14s-.84-.27-1.14-.53c-.27-.23-.46-.54-.57-.9s-.17-.82-.17-1.34v-3.02h-2.46v3.32c0,.71.09,1.39.26,2.04.18.65.48,1.18.91,1.59.27.26.55.48.85.66.3.18.63.33.99.45s.76.2,1.18.25.9.08,1.43.08h7.54v-9.87h-2.46v7.42Z"/>
      <path class="cls-1" d="M134.7,255.13c-.26.23-.39.53-.39.9,0,.41.13.72.4.94.27.22.59.32.96.32s.7-.11.96-.32c.27-.22.4-.53.4-.94,0-.37-.13-.67-.39-.9-.26-.23-.59-.34-.97-.34s-.71.11-.97.34Z"/>
      <path class="cls-1" d="M138.5,255.13c-.26.23-.39.53-.39.9,0,.41.13.72.4.94.27.22.59.32.96.32s.7-.11.96-.32c.27-.22.4-.53.4-.94,0-.37-.13-.67-.39-.9-.26-.23-.58-.34-.98-.34s-.71.11-.97.34Z"/>
      <path class="cls-1" d="M153.82,262.85c0,.43-.06.8-.19,1.09s-.31.54-.54.74c-.25.2-.54.35-.88.45-.34.1-.71.15-1.11.15h-5l.3,2.46h4.19c.95,0,1.79-.1,2.52-.29.73-.19,1.35-.52,1.85-.97.44-.41.77-.95.99-1.61.22-.67.32-1.36.32-2.09v-8.1h1.14v-2.46h-3.6v10.65Z"/>
      <rect class="cls-1" x="148.59" y="255.15" width="2.46" height="9.24"/>
      <path class="cls-1" d="M162.71,258.2c-.74.23-1.37.55-1.9.97s-.95.94-1.25,1.54c-.3.61-.45,1.3-.45,2.07,0,.88.15,1.63.46,2.25.31.63.74,1.14,1.28,1.54.54.4,1.18.69,1.91.88.73.19,1.52.28,2.36.28h.28c-.04.3-.11.55-.22.74-.11.19-.26.33-.44.43-.18.1-.4.16-.66.19s-.56.04-.89.04c-.41,0-.82-.04-1.23-.11s-.85-.18-1.33-.33l.18,2.47.72.19c.21.05.41.09.61.12.19.04.39.06.59.08.2.02.42.03.65.03.87,0,1.59-.11,2.17-.33.58-.22,1.04-.53,1.39-.93.34-.4.59-.87.74-1.43s.22-1.17.22-1.83l.02-9.21h-2.77c-.88,0-1.68.11-2.42.34ZM165.45,265.27h-1.04c-.4,0-.77-.05-1.11-.16s-.65-.26-.9-.47c-.26-.21-.46-.47-.6-.78-.15-.31-.22-.67-.22-1.08,0-.37.08-.71.24-1.02.16-.3.37-.56.63-.78.26-.22.57-.38.91-.5s.7-.18,1.06-.18h1.04v4.96Z"/>
      <path class="cls-1" d="M217.28,254.2c-.26.23-.39.53-.39.9,0,.41.13.72.4.94.27.22.59.32.96.32s.7-.11.96-.32c.27-.22.4-.53.4-.94,0-.37-.13-.67-.39-.9-.26-.23-.58-.34-.98-.34s-.71.11-.97.34Z"/>
      <path class="cls-1" d="M214.45,253.86c-.39,0-.71.11-.97.34-.26.23-.39.53-.39.9,0,.41.13.72.4.94.27.22.59.32.96.32s.7-.11.96-.32c.27-.22.4-.53.4-.94,0-.37-.13-.67-.39-.9-.26-.23-.59-.34-.97-.34Z"/>
      <path class="cls-1" d="M242.65,265.27h-3.61v-11.77h-2.46v11.77h-3.33c.04-.18.06-.36.09-.54.02-.19.04-.38.04-.58,0-.76-.14-1.47-.41-2.12-.28-.65-.66-1.22-1.14-1.7s-1.05-.86-1.7-1.13c-.65-.27-1.34-.41-2.08-.41s-1.41.14-2.04.42c-.64.28-1.19.66-1.67,1.15s-.85,1.05-1.12,1.7c-.27.65-.41,1.35-.41,2.1,0,.2,0,.39.03.58.02.19.05.37.1.54h-2.96v-7.42h-2.89c-.88,0-1.68.11-2.4.33-.72.22-1.34.55-1.86.97-.51.43-.92.94-1.2,1.55-.29.61-.43,1.3-.43,2.07,0,.5.08.96.23,1.37.15.41.36.78.61,1.12h-38.39v-11.77h-2.46v14.22h53.05c.49.51,1.06.92,1.72,1.22.65.3,1.36.45,2.1.45s1.48-.15,2.15-.44c.67-.29,1.25-.7,1.75-1.23h13.17v-11.77h1.14v-2.46h-3.6v11.77ZM217.5,265.27h-2.54c-.41-.28-.73-.63-.97-1.05-.24-.42-.36-.9-.36-1.44,0-.4.08-.75.25-1.06s.38-.57.64-.78c.26-.21.57-.37.91-.47.34-.11.69-.16,1.04-.16h1.04v4.96ZM230.7,265.25c-.15.34-.35.64-.61.89-.26.25-.57.45-.92.59-.35.14-.73.21-1.12.21s-.77-.07-1.1-.22c-.34-.15-.63-.34-.89-.6s-.45-.55-.59-.89-.21-.72-.21-1.11.07-.77.21-1.12.33-.65.58-.91c.25-.26.54-.46.88-.61.34-.15.71-.23,1.12-.23s.81.07,1.16.22c.35.15.65.35.91.6s.46.56.6.91.21.73.21,1.14-.07.79-.22,1.13Z"/>
      <path class="cls-1" d="M257.63,255.13c-.26.23-.39.53-.39.9,0,.41.13.72.4.94.27.22.59.32.96.32s.7-.11.96-.32c.27-.22.4-.53.4-.94,0-.37-.13-.67-.39-.9-.26-.23-.59-.34-.97-.34s-.71.11-.97.34Z"/>
      <path class="cls-1" d="M261.43,255.13c-.26.23-.39.53-.39.9,0,.41.13.72.4.94.27.22.59.32.96.32s.7-.11.96-.32c.27-.22.4-.53.4-.94,0-.37-.13-.67-.39-.9-.26-.23-.58-.34-.98-.34s-.71.11-.97.34Z"/>
      <path class="cls-1" d="M311.46,268.96c-.39,0-.71.12-.97.35-.26.23-.39.54-.39.91,0,.41.13.72.4.93.27.21.59.32.96.32s.7-.1.96-.32c.27-.21.4-.52.4-.93,0-.37-.13-.68-.39-.91-.26-.23-.58-.35-.98-.35Z"/>
      <path class="cls-1" d="M311.83,257.86h-2.46v7.42h-42.5v-7.42h-2.46v7.42h-4.91c-.53,0-1.02-.05-1.47-.14s-.84-.27-1.14-.53c-.27-.23-.46-.54-.57-.9s-.17-.82-.17-1.34v-3.02h-2.46v3.32c0,.71.09,1.39.26,2.04.18.65.48,1.18.91,1.59.27.26.55.48.85.66.3.18.63.33.99.45s.76.2,1.18.25.9.08,1.43.08h52.49v-9.87Z"/>
      <path class="cls-1" d="M307.65,268.96c-.39,0-.71.12-.97.35-.26.23-.39.54-.39.91,0,.41.13.72.4.93.27.21.59.32.96.32s.7-.1.96-.32c.27-.21.4-.52.4-.93,0-.37-.13-.68-.39-.91-.26-.23-.59-.35-.97-.35Z"/>
      <path class="cls-1" d="M321.84,262.85c0,.43-.06.8-.19,1.09s-.31.54-.54.74c-.25.2-.54.35-.88.45-.34.1-.71.15-1.11.15h-5l.3,2.46h4.19c.95,0,1.79-.1,2.52-.29.73-.19,1.35-.52,1.85-.97.44-.41.77-.95.99-1.61.22-.67.32-1.36.32-2.09v-8.1h1.14v-2.46h-3.6v10.65Z"/>
      <rect class="cls-1" x="316.62" y="255.15" width="2.46" height="9.24"/>
      <path class="cls-1" d="M337.01,255.3c-.28.24-.41.55-.41.94,0,.43.14.76.43.98.29.22.62.33,1.01.33s.72-.11,1.01-.33c.29-.22.43-.55.43-.98,0-.39-.14-.7-.41-.94-.28-.24-.62-.36-1.03-.36s-.75.12-1.03.36Z"/>
      <path class="cls-1" d="M392.49,263.24c0,.68-.17,1.22-.53,1.61-.35.4-.88.6-1.58.6-.67,0-1.2-.19-1.59-.58s-.6-.98-.62-1.79v-4.35h-2.46v4.35c0,.43-.07.79-.21,1.07-.14.28-.32.51-.55.68-.23.17-.48.29-.75.35-.27.06-.54.1-.8.1h-1.79v-6.54h-2.46v6.54h-36.43v-6.16h-2.46v8.35h-1.4c-.53,0-1.02-.05-1.47-.14s-.84-.27-1.14-.53c-.27-.23-.46-.54-.57-.9-.11-.37-.17-.82-.17-1.34v-5.44h-2.46v5.74c0,.71.09,1.39.26,2.04.18.65.48,1.18.91,1.59.27.26.55.48.85.66.3.18.63.33.99.45.36.12.76.2,1.18.25s.9.08,1.43.08h4.03v-2.19h40.67c.67,0,1.3-.13,1.91-.4.61-.27,1.13-.64,1.58-1.11.2.33.43.6.69.82.26.22.55.39.85.52.3.13.62.22.95.27.33.05.66.08,1,.08,1.53,0,2.67-.41,3.42-1.22.75-.81,1.12-2.07,1.12-3.76v-6.3h-2.44v6.61Z"/>
      <path class="cls-1" d="M411.74,131.08l-74.91,21.98c-.28.08-.57.06-.84-.02l-.25-.5-2.11-3.87-2.23-3.8-.76-1.2-.96-1.86c-.32-.62-.16-1.39.39-1.83l34.38-24.17c1.33-1.07.09-3.17-1.49-2.51l-40.24,16.81c-.58.24-1.26.09-1.67-.38l-8.84-10c-.51-.57-.49-1.44.03-1.99l55.25-54.09c1.27-1.34-.59-3.33-2.01-2.15l-60.27,49.81c-.54.44-1.31.45-1.85.02l-1.64-1.29-2.22-1.89-3.53-2.82-3.77-2.81c-.52-.46-.65-1.23-.3-1.83l22.1-34.48c.88-1.5-1.11-3.02-2.33-1.78l-28.83,30.68c-.38.39-.93.51-1.43.37l-2.86-1.66-4.63-2.47-4.71-2.29-1.31-.58c-.37-.41-.5-1-.29-1.54l29.79-68.1c.68-1.72-1.79-2.87-2.67-1.25l-35.63,66.06c-.25.45-.7.73-1.19.76l-3.44-1.22-5.06-1.59-5.11-1.4-.8-.19c-.35-.31-.56-.76-.51-1.25l5.46-38.83c.18-1.73-2.25-2.29-2.85-.66l-13.02,38.47h0l-3.86-.61-.59-.07,1.47-24.53c.08-1.28-1.66-1.72-2.21-.56l-11.27,23.97-2.66-.13-4.7-.09-1.67.02c-.29-.25-.49-.59-.52-1L202.28,1.36c-.15-1.85-2.87-1.79-2.94.06l-1.79,73.72c-.02.4-.19.74-.46,1l-2.3.18-4.59.51-4.51.65c-.46-.12-.85-.45-1.02-.92l-11.2-36.82c-.6-1.65-3.07-1.06-2.85.69l5.17,38.29c.03.28-.03.54-.14.78l-1.88.42-7.25,2.02-7.17,2.42-3.15,1.25L117.45,18.81c-.94-1.56-3.32-.37-2.63,1.32l30.15,69.88c.06.15.08.3.09.46l-2.64,1.31-4.79,2.59-2.12,1.25c-.1-.06-.21-.13-.3-.22l-28.69-31.25c-1.19-1.25-3.19.21-2.36,1.73l21.59,36.04s0,.01,0,.02l-4.35,3.15-5.48,4.39-2.55,2.25c-.17-.05-.34-.13-.48-.24l-61.35-49.78c-1.44-1.12-3.23.86-1.97,2.18l54.88,56c.07.07.11.17.16.25l-3.73,4.01-4.51,5.36-.6.79c-.16-.02-.32-.05-.47-.12l-40.04-20.24c-1.59-.73-2.9,1.42-1.53,2.5l35.04,26.54c.16.12.28.28.37.44l-.97,1.41-3.68,5.95-3.39,6.12-.58,1.17c-.14,0-.28,0-.41-.05L1.89,129.02c-1.78-.51-2.69,2.06-.98,2.78l75.03,31.1c.14.06.26.14.37.24l-1.07,2.48-2.46,6.56-2.13,6.65-.42,1.57c-.14.03-.29.05-.44.04l-43.3-3.66c-1.78-.13-2.22,2.43-.5,2.89l41.52,8.96c.23.06.42.19.59.35l-.64,2.96-1.1,6.43-.75,6.04c-.14.06-.3.1-.46.11l-40.09,1.52c-1.82.13-2.04,5.4-.22,5.54h175.88l-2.24,10.26c-.28,1.3,1.49,1.98,2.15.82l6.21-11.07h144.9s42.32-.18,42.32-.18c1.78-.16,1.83-5.34.05-5.52l-42.53-3.27c-.13-.01-.25-.06-.37-.1l-.56-4.4-1.13-6.51-1.01-4.6c.19-.26.46-.46.79-.55l42.82-8.73c1.71-.45,1.32-2.97-.44-2.9l-45.85,2.22-1.42-4.45-2.27-6.13-1.82-4.32c.09-.07.18-.12.29-.17l72.15-28.14c1.69-.74.76-3.29-1.01-2.76ZM159.62,169.67c-.93,1.71-2.2,3.14-3.81,4.29-1.61,1.16-3.54,2.04-5.77,2.64-2.24.61-4.66.91-7.28.91-1.59,0-3.19-.1-4.81-.31-1.61-.21-3.16-.49-4.64-.85-1.48-.36-2.86-.79-4.15-1.28-1.29-.49-2.43-1.04-3.41-1.65l3.24-7.22c.8.53,1.72,1.01,2.79,1.45,1.06.44,2.19.81,3.38,1.11,1.19.3,2.42.55,3.67.74,1.25.19,2.48.28,3.7.28,1.4,0,2.7-.11,3.9-.34s2.23-.59,3.1-1.08c.87-.49,1.56-1.13,2.08-1.91.51-.78.77-1.7.77-2.76,0-.95-.21-1.76-.63-2.45-.42-.68-1-1.27-1.76-1.76-.76-.49-1.68-.91-2.76-1.25-1.08-.34-2.28-.68-3.61-1.02l-3.81-.97c-4.21-1.02-7.37-2.71-9.5-5.06-2.12-2.35-3.18-5.25-3.18-8.7,0-1.86.4-3.56,1.19-5.12.8-1.55,1.93-2.89,3.41-4.01,1.48-1.12,3.24-1.98,5.29-2.59,2.05-.61,4.32-.91,6.82-.91,1.44,0,2.91.1,4.41.31,1.5.21,2.95.5,4.35.88,1.4.38,2.74.82,4.01,1.31,1.27.49,2.4,1.04,3.38,1.65l-3.24,7.22c-1.71-1.1-3.74-1.97-6.09-2.62-2.35-.64-4.64-.97-6.88-.97-1.1,0-2.14.1-3.13.31-.99.21-1.86.52-2.62.94-.76.42-1.36.94-1.79,1.56s-.65,1.36-.65,2.19c0,1.52.58,2.73,1.73,3.64,1.16.91,3.02,1.69,5.6,2.33l3.87.97c1.93.49,3.76,1.12,5.49,1.88,1.72.76,3.23,1.71,4.52,2.84,1.29,1.14,2.31,2.48,3.07,4.04.76,1.56,1.14,3.36,1.14,5.4,0,2.24-.46,4.21-1.39,5.91ZM258.71,119.08l-51.88,92.48h-6.12l12.75-58.29c.17-.76-.45-1.47-1.23-1.4l-31.15,2.57c-.89.07-1.53-.84-1.15-1.65l36.08-76.7,12.08.99-2.62,43.78c-.04.74.6,1.33,1.33,1.22l30.71-4.7c.96-.15,1.66.87,1.19,1.71ZM306.29,175.69h-28.11v-44.01h7.87v36.74h20.24v7.27Z"/>
    </g>
  </g>
</svg>